<svg width="180" height="54" viewBox="0 0 180 54" fill="none" xmlns="http://www.w3.org/2000/svg">
<path d="M165.666 5.34297e-05H14.3422C13.7906 5.34297e-05 13.2456 5.34298e-05 12.6955 0.00275343C12.235 0.00545343 11.7781 0.0132969 11.3132 0.0198984C10.3031 0.0305659 9.29543 0.110316 8.29888 0.258457C7.30373 0.409822 6.33976 0.69519 5.43956 1.10491C4.54046 1.51809 3.71893 2.05498 3.00477 2.6961C2.28686 3.33541 1.68842 4.07438 1.23248 4.88457C0.775271 5.69315 0.458244 6.55962 0.292343 7.45405C0.124866 8.34735 0.0347448 9.25096 0.0227888 10.1568C0.00882972 10.5707 0.00735559 10.9859 0 11.3999V42.6042C0.00735559 43.0233 0.00882972 43.4294 0.0227888 43.8487C0.0347485 44.7545 0.12487 45.658 0.292343 46.5513C0.457785 47.4462 0.774831 48.3132 1.23248 49.1221C1.68821 49.9297 2.28673 50.6656 3.00477 51.3014C3.71622 51.9454 4.53828 52.4826 5.43956 52.8926C6.33975 53.3035 7.30362 53.5905 8.29888 53.7442C9.2956 53.8912 10.3032 53.971 11.3132 53.9829C11.7781 53.9921 12.235 53.9974 12.6955 53.9974C13.2456 54.0001 13.7906 54.0001 14.3422 54.0001H165.666C166.207 54.0001 166.756 54.0001 167.296 53.9974C167.755 53.9974 168.225 53.9921 168.683 53.9829C169.691 53.9716 170.697 53.8918 171.692 53.7442C172.69 53.5894 173.657 53.3025 174.562 52.8926C175.462 52.4824 176.284 51.9451 176.995 51.3014C177.711 50.6632 178.311 49.9277 178.772 49.1221C179.226 48.3126 179.54 47.4457 179.703 46.5513C179.871 45.6579 179.964 44.7546 179.982 43.8487C179.988 43.4294 179.988 43.0233 179.988 42.6042C180 42.1137 180 41.626 180 41.1275V12.8738C180 12.3794 180 11.889 179.988 11.3999C179.988 10.9859 179.988 10.5707 179.982 10.1567C179.964 9.25082 179.871 8.34742 179.703 7.454C179.54 6.56008 179.226 5.69368 178.772 4.88452C177.843 3.26057 176.371 1.93869 174.562 1.10479C173.657 0.696069 172.69 0.410778 171.692 0.258335C170.697 0.109542 169.691 0.0297639 168.683 0.0197094C168.225 0.0131214 167.755 0.00521043 167.296 0.00257793C166.756 -0.00012207 166.207 -0.00012207 165.666 -0.00012207V5.34297e-05Z" fill="black"/>
<path d="M12.7031 52.8187C12.2448 52.8187 11.7976 52.8135 11.3428 52.8043C10.4009 52.7933 9.46112 52.7197 8.53127 52.5841C7.66422 52.4501 6.82429 52.2008 6.03918 51.8445C5.26127 51.4911 4.55174 51.0277 3.9378 50.472C3.31497 49.923 2.79643 49.2861 2.40274 48.5868C2.00471 47.8829 1.72924 47.1284 1.58595 46.3495C1.4312 45.5127 1.34748 44.6665 1.3355 43.8183C1.32596 43.5336 1.31348 42.5856 1.31348 42.5856V11.3999C1.31348 11.3999 1.32677 10.4664 1.33557 10.1922C1.34704 9.34534 1.43028 8.50048 1.58457 7.66493C1.72813 6.88398 2.0038 6.1273 2.40204 5.42109C2.79429 4.72222 3.30995 4.08491 3.92903 3.53386C4.54741 2.97758 5.2592 2.51181 6.03844 2.15353C6.82175 1.79832 7.6601 1.55078 8.52539 1.41921C9.45829 1.28227 10.4013 1.20824 11.3465 1.19773L12.7038 1.18124H167.289L168.663 1.19839C169.6 1.20838 170.534 1.28175 171.458 1.41789C172.332 1.55111 173.179 1.80037 173.972 2.15748C175.533 2.87953 176.803 4.02186 177.604 5.42439C177.996 6.12572 178.268 6.87623 178.409 7.65043C178.566 8.49283 178.653 9.34434 178.671 10.1982C178.675 10.5805 178.675 10.9912 178.675 11.3999C178.687 11.9061 178.687 12.388 178.687 12.8738V41.1275C178.687 41.6179 178.687 42.0965 178.675 42.579C178.675 43.018 178.675 43.4202 178.669 43.8341C178.652 44.6727 178.566 45.509 178.412 46.3363C178.272 47.1207 177.998 47.8811 177.6 48.5908C177.204 49.2826 176.688 49.9139 176.072 50.4615C175.458 51.0201 174.747 51.4862 173.967 51.8419C173.177 52.201 172.331 52.4512 171.458 52.5841C170.529 52.7204 169.589 52.794 168.647 52.8043C168.206 52.8135 167.745 52.8187 167.297 52.8187L165.666 52.8214L12.7031 52.8187Z" fill="black"/>
<path d="M37.2593 27.4059C37.2754 26.2792 37.6089 25.1743 38.2287 24.1943C38.8485 23.2143 39.7344 22.3908 40.804 21.8007C40.1245 20.9297 39.2281 20.2129 38.1859 19.7073C37.1438 19.2016 35.9846 18.921 34.8005 18.8878C32.2745 18.6498 29.8258 20.2443 28.5386 20.2443C27.2265 20.2443 25.2447 18.9114 23.1106 18.9508C21.7303 18.9909 20.385 19.3511 19.2059 19.9965C18.0268 20.6419 17.054 21.5504 16.3824 22.6335C13.4733 27.1538 15.6432 33.7972 18.43 37.4512C19.8242 39.2404 21.4537 41.239 23.5858 41.1681C25.6723 41.0905 26.4515 39.9741 28.97 39.9741C31.4651 39.9741 32.1962 41.1681 34.3716 41.1231C36.6105 41.0904 38.021 39.3259 39.3664 37.5197C40.3682 36.2448 41.139 34.8358 41.6504 33.3448C40.3497 32.8511 39.2397 32.0247 38.4588 30.9686C37.678 29.9125 37.2608 28.6734 37.2593 27.4059V27.4059Z" fill="white"/>
<path d="M33.1511 16.4847C34.3718 15.1695 34.9732 13.4791 34.8276 11.7724C32.9626 11.9482 31.2399 12.7481 30.0027 14.0128C29.3978 14.6307 28.9345 15.3495 28.6393 16.1281C28.3441 16.9068 28.2228 17.73 28.2823 18.5507C29.2151 18.5593 30.138 18.3779 30.9813 18.02C31.8247 17.6621 32.5666 17.1372 33.1511 16.4847Z" fill="white"/>
<path d="M63.6328 36.6385H56.5127L54.8029 41.1697H51.7871L58.5311 24.4054H61.6644L68.4083 41.1697H65.3411L63.6328 36.6385ZM57.2502 34.5476H62.8939L60.1117 27.1938H60.0339L57.2502 34.5476Z" fill="white"/>
<path d="M82.973 35.0591C82.973 38.8573 80.7078 41.2976 77.2896 41.2976C76.4237 41.3383 75.5625 41.1592 74.8047 40.7811C74.0469 40.4029 73.4231 39.8408 73.0046 39.1592H72.94V45.2131H70.1445V28.9472H72.8504V30.9801H72.9018C73.3395 30.3018 73.9738 29.7426 74.7374 29.3622C75.501 28.9817 76.3652 28.7941 77.2382 28.8193C80.6946 28.8193 82.973 31.2715 82.973 35.0591ZM80.0997 35.0591C80.0997 32.5846 78.6748 30.9577 76.5007 30.9577C74.3649 30.9577 72.9282 32.6189 72.9282 35.0591C72.9282 37.5218 74.3649 39.1711 76.5007 39.1711C78.6748 39.1711 80.0997 37.5561 80.0997 35.0591Z" fill="white"/>
<path d="M97.9622 35.0591C97.9622 38.8573 95.6971 41.2976 92.2788 41.2976C91.4129 41.3383 90.5518 41.1592 89.794 40.781C89.0361 40.4029 88.4123 39.8408 87.9939 39.1592H87.9292V45.2131H85.1338V28.9472H87.8396V30.9801H87.891C88.3287 30.3018 88.963 29.7426 89.7266 29.3621C90.4902 28.9817 91.3544 28.7941 92.2274 28.8193C95.6839 28.8193 97.9622 31.2715 97.9622 35.0591ZM95.0889 35.0591C95.0889 32.5846 93.664 30.9577 91.49 30.9577C89.3541 30.9577 87.9175 32.6188 87.9175 35.0591C87.9175 37.5218 89.3541 39.1711 91.49 39.1711C93.6641 39.1711 95.089 37.5561 95.089 35.0591H95.0889Z" fill="white"/>
<path d="M107.869 36.4988C108.077 38.1612 109.876 39.2528 112.335 39.2528C114.691 39.2528 116.386 38.1612 116.386 36.6622C116.386 35.361 115.364 34.5818 112.943 34.0479L110.522 33.5245C107.092 32.7809 105.5 31.3413 105.5 29.0051C105.5 26.1127 108.309 24.1259 112.297 24.1259C116.244 24.1259 118.95 26.1127 119.041 29.0051H116.219C116.05 27.3321 114.509 26.3223 112.257 26.3223C110.005 26.3223 108.464 27.344 108.464 28.8311C108.464 30.0163 109.448 30.7137 111.856 31.2476L113.914 31.7011C117.747 32.5146 119.339 33.8962 119.339 36.3484C119.339 39.4847 116.555 41.4491 112.128 41.4491C107.985 41.4491 105.188 39.5309 105.008 36.4986L107.869 36.4988Z" fill="white"/>
<path d="M125.372 26.0547V28.9472H127.962V30.934H125.372V37.6721C125.372 38.7189 125.89 39.2067 127.029 39.2067C127.336 39.2019 127.643 39.1825 127.948 39.1487V41.1236C127.437 41.2094 126.916 41.2483 126.396 41.2396C123.638 41.2396 122.563 40.3101 122.563 37.9397V30.934H120.583V28.9472H122.563V26.0547H125.372Z" fill="white"/>
<path d="M129.461 35.0591C129.461 31.2135 131.985 28.7969 135.92 28.7969C139.868 28.7969 142.38 31.2134 142.38 35.0591C142.38 38.9153 139.882 41.3213 135.92 41.3213C131.96 41.3213 129.461 38.9153 129.461 35.0591ZM139.532 35.0591C139.532 32.4211 138.185 30.8641 135.92 30.8641C133.655 30.8641 132.309 32.433 132.309 35.0591C132.309 37.7077 133.655 39.2528 135.92 39.2528C138.185 39.2528 139.532 37.7077 139.532 35.0591H139.532Z" fill="white"/>
<path d="M144.686 28.9472H147.352V31.0276H147.416C147.597 30.3778 148.021 29.8036 148.617 29.4015C149.214 28.9994 149.947 28.7938 150.692 28.8193C151.014 28.8183 151.336 28.8497 151.65 28.9129V31.2596C151.243 31.1481 150.819 31.0969 150.394 31.108C149.988 31.0932 149.583 31.1575 149.207 31.2964C148.831 31.4353 148.493 31.6455 148.217 31.9127C147.94 32.1798 147.731 32.4976 147.604 32.8441C147.477 33.1906 147.435 33.5576 147.481 33.9201V41.1697H144.686L144.686 28.9472Z" fill="white"/>
<path d="M164.538 37.5798C164.162 39.7986 161.754 41.3213 158.674 41.3213C154.712 41.3213 152.253 38.9391 152.253 35.1171C152.253 31.2834 154.725 28.7969 158.556 28.7969C162.324 28.7969 164.694 31.1199 164.694 34.8258V35.6854H155.075V35.837C155.03 36.2868 155.093 36.7399 155.259 37.1663C155.425 37.5927 155.69 37.9826 156.036 38.31C156.383 38.6374 156.803 38.895 157.269 39.0655C157.735 39.236 158.236 39.3156 158.738 39.299C159.399 39.3545 160.062 39.2172 160.629 38.9075C161.195 38.5977 161.635 38.1321 161.883 37.5798L164.538 37.5798ZM155.088 33.9319H161.897C161.922 33.5275 161.853 33.1227 161.696 32.7431C161.538 32.3635 161.295 32.0172 160.982 31.7259C160.668 31.4346 160.291 31.2046 159.873 31.0504C159.456 30.8962 159.007 30.8211 158.556 30.8298C158.101 30.8274 157.65 30.9059 157.229 31.0608C156.807 31.2157 156.424 31.4439 156.102 31.7324C155.779 32.0208 155.524 32.3636 155.35 32.7411C155.176 33.1187 155.087 33.5234 155.088 33.932V33.9319Z" fill="white"/>
<path d="M56.8992 11.7869C57.4853 11.7491 58.0734 11.8286 58.6211 12.0195C59.1688 12.2105 59.6624 12.5081 60.0664 12.891C60.4704 13.2739 60.7747 13.7325 60.9573 14.2337C61.14 14.7349 61.1964 15.2663 61.1225 15.7894C61.1225 18.3629 59.5727 19.8421 56.8992 19.8421H53.6572V11.7869H56.8992ZM55.0513 18.7029H56.7435C57.1623 18.7254 57.5814 18.6638 57.9703 18.5225C58.3592 18.3813 58.7081 18.164 58.9916 17.8865C59.2751 17.609 59.4862 17.2782 59.6093 16.9183C59.7324 16.5584 59.7646 16.1783 59.7034 15.8058C59.7602 15.4348 59.7247 15.0571 59.5997 14.6998C59.4747 14.3425 59.2631 14.0145 58.9803 13.7392C58.6974 13.4639 58.3501 13.2481 57.9634 13.1074C57.5767 12.9667 57.1601 12.9045 56.7435 12.9252H55.0513V18.7029Z" fill="white"/>
<path d="M62.6977 16.7999C62.6551 16.4004 62.7061 15.9973 62.8472 15.6165C62.9884 15.2357 63.2166 14.8856 63.5174 14.5886C63.8182 14.2917 64.1848 14.0544 64.5937 13.892C65.0026 13.7296 65.4448 13.6458 65.892 13.6458C66.3391 13.6458 66.7814 13.7296 67.1903 13.892C67.5992 14.0544 67.9658 14.2917 68.2665 14.5886C68.5673 14.8856 68.7956 15.2357 68.9367 15.6165C69.0779 15.9973 69.1288 16.4004 69.0862 16.7999C69.1296 17.1998 69.0793 17.6034 68.9385 17.9848C68.7977 18.3662 68.5696 18.717 68.2688 19.0145C67.9679 19.3121 67.6011 19.5499 67.1917 19.7126C66.7824 19.8753 66.3397 19.9594 65.892 19.9594C65.4443 19.9594 65.0015 19.8753 64.5922 19.7126C64.1829 19.5499 63.816 19.3121 63.5152 19.0145C63.2144 18.717 62.9862 18.3662 62.8454 17.9848C62.7046 17.6034 62.6543 17.1998 62.6977 16.7999V16.7999ZM67.7113 16.7999C67.7113 15.4822 67.0517 14.7116 65.8942 14.7116C64.7322 14.7116 64.0786 15.4822 64.0786 16.7999C64.0786 18.1281 64.7323 18.8928 65.8942 18.8928C67.0517 18.8928 67.7113 18.1228 67.7113 16.7999H67.7113Z" fill="white"/>
<path d="M77.5777 19.842H76.191L74.7911 15.3648H74.6853L73.2913 19.842H71.9178L70.0508 13.763H71.4066L72.62 18.4016H72.7199L74.1125 13.763H75.3949L76.7874 18.4016H76.8932L78.1007 13.763H79.4374L77.5777 19.842Z" fill="white"/>
<path d="M81.0078 13.763H82.2946V14.7287H82.3945C82.564 14.3819 82.8498 14.0911 83.2121 13.897C83.5744 13.7029 83.9952 13.615 84.4158 13.6457C84.7454 13.6235 85.0763 13.6681 85.3841 13.7762C85.6918 13.8843 85.9685 14.0532 86.1937 14.2703C86.4188 14.4875 86.5867 14.7473 86.6847 15.0306C86.7828 15.3138 86.8086 15.6132 86.7602 15.9067V19.8419H85.4235V16.2079C85.4235 15.231 84.9505 14.7452 83.9619 14.7452C83.7381 14.7359 83.5148 14.77 83.3071 14.8454C83.0994 14.9208 82.9124 15.0356 82.7588 15.1819C82.6051 15.3282 82.4886 15.5026 82.4171 15.6931C82.3456 15.8837 82.3209 16.0858 82.3446 16.2857V19.842H81.0078L81.0078 13.763Z" fill="white"/>
<path d="M88.8906 11.39H90.2274V19.842H88.8906V11.39Z" fill="white"/>
<path d="M92.0854 16.7999C92.0428 16.4003 92.0938 15.9972 92.235 15.6164C92.3762 15.2356 92.6045 14.8855 92.9053 14.5885C93.206 14.2915 93.5727 14.0543 93.9816 13.8919C94.3906 13.7295 94.8328 13.6456 95.28 13.6456C95.7272 13.6456 96.1694 13.7295 96.5784 13.8919C96.9873 14.0543 97.354 14.2915 97.6547 14.5885C97.9555 14.8855 98.1838 15.2356 98.325 15.6164C98.4662 15.9972 98.5172 16.4003 98.4746 16.7999C98.5179 17.1998 98.4676 17.6034 98.3268 17.9848C98.1859 18.3662 97.9578 18.717 97.6569 19.0145C97.356 19.3121 96.9891 19.5498 96.5798 19.7125C96.1704 19.8753 95.7277 19.9593 95.28 19.9593C94.8323 19.9593 94.3895 19.8753 93.9802 19.7125C93.5709 19.5498 93.204 19.3121 92.9031 19.0145C92.6022 18.717 92.3741 18.3662 92.2332 17.9848C92.0924 17.6034 92.042 17.1998 92.0854 16.7999V16.7999ZM97.0989 16.7999C97.0989 15.4822 96.4394 14.7116 95.2818 14.7116C94.1199 14.7116 93.4663 15.4822 93.4663 16.7999C93.4663 18.1281 94.1199 18.8928 95.2818 18.8928C96.4394 18.8927 97.0989 18.1228 97.0989 16.7999H97.0989Z" fill="white"/>
<path d="M99.8809 18.1229C99.8809 17.0286 100.789 16.3978 102.4 16.3081L104.235 16.2132V15.6885C104.235 15.0465 103.762 14.6839 102.848 14.6839C102.102 14.6839 101.585 14.9298 101.436 15.3596H100.142C100.279 14.3154 101.373 13.6457 102.91 13.6457C104.608 13.6457 105.566 14.4044 105.566 15.6885V19.842H104.279V18.9877H104.173C103.958 19.2942 103.657 19.544 103.3 19.7117C102.942 19.8793 102.542 19.9589 102.139 19.9422C101.854 19.9687 101.567 19.9415 101.295 19.8622C101.023 19.783 100.773 19.6535 100.56 19.4821C100.347 19.3107 100.177 19.1012 100.06 18.8671C99.943 18.6329 99.882 18.3794 99.8809 18.1229V18.1229ZM104.235 17.6034V17.0952L102.581 17.1901C101.648 17.2461 101.225 17.5309 101.225 18.0668C101.225 18.6139 101.754 18.9323 102.481 18.9323C102.694 18.9517 102.909 18.9324 103.114 18.8755C103.318 18.8187 103.508 18.7256 103.672 18.6016C103.835 18.4776 103.97 18.3253 104.066 18.1538C104.163 17.9824 104.22 17.7952 104.235 17.6034V17.6034Z" fill="white"/>
<path d="M107.322 16.7999C107.322 14.879 108.423 13.6622 110.134 13.6622C110.557 13.6447 110.977 13.7357 111.345 13.9245C111.713 14.1134 112.013 14.3923 112.211 14.7287H112.311V11.39H113.648V19.842H112.367V18.8815H112.261C112.048 19.2156 111.737 19.4911 111.362 19.678C110.987 19.865 110.562 19.9563 110.134 19.9421C108.411 19.9422 107.322 18.7253 107.322 16.7999ZM108.703 16.7999C108.703 18.0892 109.38 18.8651 110.513 18.8651C111.64 18.8651 112.336 18.078 112.336 16.8051C112.336 15.5382 111.632 14.7399 110.513 14.7399C109.388 14.7399 108.703 15.521 108.703 16.7999H108.703Z" fill="white"/>
<path d="M119.179 16.7999C119.137 16.4004 119.188 15.9973 119.329 15.6165C119.47 15.2357 119.698 14.8856 119.999 14.5886C120.3 14.2917 120.666 14.0544 121.075 13.892C121.484 13.7296 121.926 13.6458 122.373 13.6458C122.821 13.6458 123.263 13.7296 123.672 13.892C124.081 14.0544 124.447 14.2917 124.748 14.5886C125.049 14.8856 125.277 15.2357 125.418 15.6165C125.559 15.9973 125.61 16.4004 125.568 16.7999C125.611 17.1998 125.561 17.6034 125.42 17.9848C125.279 18.3662 125.051 18.717 124.75 19.0145C124.449 19.3121 124.082 19.5499 123.673 19.7126C123.264 19.8753 122.821 19.9594 122.373 19.9594C121.926 19.9594 121.483 19.8753 121.074 19.7126C120.664 19.5499 120.297 19.3121 119.997 19.0145C119.696 18.717 119.468 18.3662 119.327 17.9848C119.186 17.6034 119.136 17.1998 119.179 16.7999V16.7999ZM124.193 16.7999C124.193 15.4822 123.533 14.7116 122.376 14.7116C121.214 14.7116 120.56 15.4822 120.56 16.7999C120.56 18.1281 121.214 18.8928 122.376 18.8928C123.533 18.8928 124.193 18.1228 124.193 16.7999Z" fill="white"/>
<path d="M127.36 13.763H128.647V14.7287H128.747C128.917 14.3819 129.202 14.0911 129.565 13.897C129.927 13.7029 130.348 13.615 130.768 13.6457C131.098 13.6235 131.429 13.6681 131.737 13.7762C132.044 13.8843 132.321 14.0532 132.546 14.2703C132.771 14.4875 132.939 14.7473 133.037 15.0306C133.135 15.3138 133.161 15.6132 133.113 15.9067V19.8419H131.776V16.2079C131.776 15.231 131.303 14.7452 130.314 14.7452C130.091 14.7359 129.867 14.77 129.66 14.8454C129.452 14.9208 129.265 15.0356 129.111 15.1819C128.958 15.3282 128.841 15.5026 128.77 15.6931C128.698 15.8837 128.673 16.0858 128.697 16.2857V19.842H127.36V13.763Z" fill="white"/>
<path d="M140.666 12.2495V13.7907H142.134V14.8012H140.666V17.9271C140.666 18.5638 140.959 18.8427 141.624 18.8427C141.795 18.8422 141.965 18.8329 142.134 18.815V19.8143C141.894 19.8528 141.651 19.8733 141.407 19.8756C139.92 19.8756 139.328 19.4062 139.328 18.2342V14.8012H138.253V13.7906H139.328V12.2495H140.666Z" fill="white"/>
<path d="M143.961 11.39H145.286V14.7399H145.392C145.569 14.3898 145.863 14.0974 146.233 13.9026C146.602 13.7077 147.03 13.6198 147.457 13.6509C147.785 13.6349 148.113 13.6841 148.417 13.7948C148.721 13.9056 148.994 14.0752 149.217 14.2917C149.44 14.5081 149.607 14.7661 149.706 15.047C149.805 15.328 149.833 15.6251 149.79 15.9172V19.842H148.452V16.2132C148.452 15.2422 147.948 14.7504 147.003 14.7504C146.773 14.7335 146.542 14.7619 146.326 14.8335C146.11 14.9051 145.914 15.0183 145.751 15.1651C145.589 15.3119 145.464 15.4888 145.386 15.6833C145.307 15.8779 145.277 16.0855 145.298 16.2916V19.8419H143.961L143.961 11.39Z" fill="white"/>
<path d="M157.584 18.2006C157.402 18.7562 157.009 19.2368 156.472 19.5583C155.936 19.8798 155.29 20.0217 154.649 19.9593C154.203 19.9699 153.759 19.8932 153.349 19.7345C152.939 19.5759 152.573 19.339 152.275 19.0405C151.978 18.742 151.756 18.3889 151.625 18.0057C151.495 17.6225 151.459 17.2185 151.52 16.8216C151.461 16.4235 151.497 16.0186 151.627 15.6343C151.757 15.25 151.978 14.8953 152.274 14.5941C152.57 14.293 152.935 14.0524 153.344 13.8888C153.752 13.7252 154.196 13.6423 154.643 13.6457C156.528 13.6457 157.665 14.8013 157.665 16.7102V17.1288H152.882V17.1961C152.861 17.4191 152.892 17.6437 152.974 17.8553C153.055 18.0669 153.185 18.2609 153.355 18.4249C153.524 18.5888 153.731 18.7191 153.96 18.8074C154.189 18.8957 154.436 18.94 154.686 18.9376C155.005 18.972 155.329 18.9203 155.616 18.7891C155.903 18.6579 156.14 18.453 156.297 18.2006L157.584 18.2006ZM152.882 16.2415H156.303C156.32 16.0375 156.289 15.8326 156.212 15.6399C156.136 15.4473 156.015 15.2711 155.858 15.1228C155.701 14.9745 155.511 14.8573 155.301 14.7788C155.09 14.7002 154.864 14.6621 154.636 14.6668C154.405 14.6642 154.175 14.7031 153.961 14.7813C153.747 14.8596 153.552 14.9755 153.389 15.1222C153.225 15.269 153.096 15.4437 153.009 15.6359C152.922 15.8281 152.879 16.0341 152.882 16.2415H152.882Z" fill="white"/>
</svg>
