<svg width="180" height="54" viewBox="0 0 180 54" fill="none" xmlns="http://www.w3.org/2000/svg">
<path d="M173.333 54H6.66676C3.00002 54 0 50.9625 0 47.25V6.75C0 3.03747 3.00002 0 6.66676 0H173.333C177 0 180 3.03747 180 6.75V47.25C180 50.9625 177 54 173.333 54Z" fill="#100F0D"/>
<path d="M142.582 40.5H145.07V23.6222H142.582V40.5ZM164.992 29.7024L162.14 37.0193H162.054L159.094 29.7024H156.414L160.854 39.9289L158.322 45.6178H160.917L167.758 29.7029L164.992 29.7024ZM150.881 38.5829C150.068 38.5829 148.93 38.1699 148.93 37.1495C148.93 35.8469 150.346 35.3475 151.568 35.3475C152.661 35.3475 153.177 35.586 153.841 35.9118C153.648 37.4754 152.318 38.5828 150.881 38.5828L150.881 38.5829ZM151.182 29.3332C149.381 29.3332 147.516 30.1369 146.744 31.9173L148.952 32.8507C149.424 31.9173 150.302 31.6136 151.225 31.6136C152.512 31.6136 153.82 32.3946 153.841 33.7847V33.9581C153.39 33.6976 152.425 33.3069 151.246 33.3069C148.865 33.3069 146.442 34.631 146.442 37.1063C146.442 39.3644 148.394 40.8193 150.581 40.8193C152.253 40.8193 153.177 40.0594 153.754 39.1688H153.841V40.4723H156.244V34.0013C156.244 31.0049 154.033 29.3332 151.182 29.3332V29.3332ZM135.806 31.7569H132.267V25.9721H135.806C137.666 25.9721 138.722 27.531 138.722 28.8644C138.722 30.1723 137.666 31.7569 135.806 31.7569ZM135.742 23.6226H129.78V40.5004H132.267V34.1064H135.742C138.499 34.1064 141.21 32.0856 141.21 28.8651C141.21 25.6451 138.499 23.6233 135.742 23.6233L135.742 23.6226ZM103.233 38.5857C101.515 38.5857 100.076 37.1281 100.076 35.1279C100.076 33.1045 101.515 31.6263 103.233 31.6263C104.93 31.6263 106.262 33.1046 106.262 35.1279C106.262 37.1281 104.93 38.5857 103.233 38.5857ZM106.09 30.6472H106.004C105.446 29.9731 104.371 29.3641 103.019 29.3641C100.183 29.3641 97.5838 31.8874 97.5838 35.1279C97.5838 38.3463 100.183 40.8475 103.019 40.8475C104.371 40.8475 105.446 40.2383 106.004 39.5428H106.09V40.3686C106.09 42.5661 104.93 43.7399 103.062 43.7399C101.537 43.7399 100.592 42.6309 100.205 41.6959L98.0356 42.6092C98.658 44.131 100.312 46.0022 103.062 46.0022C105.984 46.0022 108.454 44.2619 108.454 40.0205V29.712H106.09L106.09 30.6472ZM110.173 40.4995H112.663V23.6217H110.173V40.4995ZM116.337 34.9318C116.273 32.7133 118.035 31.5826 119.301 31.5826C120.29 31.5826 121.127 32.083 121.407 32.8002L116.337 34.9318ZM124.07 33.0175C123.597 31.7351 122.158 29.3641 119.215 29.3641C116.294 29.3641 113.866 31.6912 113.866 35.1059C113.866 38.3248 116.273 40.8476 119.494 40.8476C122.093 40.8476 123.597 39.2387 124.221 38.3031L122.287 36.998C121.643 37.9551 120.762 38.5858 119.494 38.5858C118.228 38.5858 117.325 37.9984 116.746 36.8457L124.328 33.6705L124.07 33.0175ZM63.6584 31.1259V33.5618H69.4151C69.2433 34.9319 68.7922 35.9322 68.1047 36.6283C67.2667 37.4762 65.9563 38.4117 63.6583 38.4117C60.1139 38.4117 57.3431 35.5193 57.3431 31.9307C57.3431 28.3421 60.1139 25.4492 63.6583 25.4492C65.5702 25.4492 66.9662 26.2106 67.9973 27.1893L69.6948 25.4708C68.2551 24.079 66.3436 23.0134 63.6583 23.0134C58.8029 23.0134 54.7217 27.0153 54.7217 31.9307C54.7217 36.8456 58.8029 40.8476 63.6583 40.8476C66.2786 40.8476 68.2552 39.9775 69.8016 38.3464C71.3912 36.7369 71.8854 34.4752 71.8854 32.6479C71.8854 32.0831 71.8421 31.5611 71.7562 31.1259H63.6584ZM78.431 38.5857C76.7121 38.5857 75.2299 37.1502 75.2299 35.1059C75.2299 33.0397 76.7121 31.6264 78.431 31.6264C80.1492 31.6264 81.6314 33.0397 81.6314 35.1059C81.6314 37.1502 80.1492 38.5857 78.431 38.5857ZM78.431 29.3641C75.2939 29.3641 72.7381 31.7782 72.7381 35.1059C72.7381 38.4118 75.2939 40.8476 78.431 40.8476C81.5669 40.8476 84.1232 38.4118 84.1232 35.1059C84.1232 31.7782 81.5669 29.3641 78.431 29.3641V29.3641ZM90.8485 38.5857C89.1308 38.5857 87.6481 37.1502 87.6481 35.1059C87.6481 33.0397 89.1309 31.6264 90.8485 31.6264C92.5674 31.6264 94.0491 33.0397 94.0491 35.1059C94.0491 37.1502 92.5674 38.5857 90.8485 38.5857ZM90.8485 29.3641C87.7126 29.3641 85.1568 31.7782 85.1568 35.1059C85.1568 38.4118 87.7126 40.8476 90.8485 40.8476C93.9856 40.8476 96.5414 38.4118 96.5414 35.1059C96.5414 31.7782 93.9856 29.3641 90.8485 29.3641" fill="white"/>
<path d="M27.6198 26.2224L13.4258 41.4771C13.4263 41.4802 13.4274 41.4829 13.4279 41.4861C13.8632 43.1426 15.3575 44.3623 17.1309 44.3623C17.8398 44.3623 18.5054 44.1682 19.0762 43.8275L19.1215 43.8006L35.0995 34.4652L27.6205 26.2222" fill="#EB3131"/>
<path d="M41.9804 23.6252L41.9668 23.6158L35.0686 19.5667L27.2969 26.569L35.0956 34.4643L41.9574 30.4555C43.1604 29.798 43.9771 28.5138 43.9771 27.033C43.9771 25.5628 43.1714 24.2851 41.9803 23.6253" fill="#F6B60B"/>
<path d="M13.4222 12.5239C13.3368 12.8425 13.292 13.1762 13.292 13.5228V40.4793C13.292 40.8252 13.3363 41.16 13.4227 41.4775L28.1067 26.6126L13.4227 12.5243" fill="#5778C5"/>
<path d="M27.7248 27.001L35.0721 19.5639L19.1121 10.1946C18.532 9.84281 17.8549 9.63977 17.1304 9.63977C15.357 9.63977 13.8607 10.8617 13.4253 12.5201C13.4248 12.5217 13.4248 12.5228 13.4248 12.5243L27.7248 27.0013" fill="#3BAD49"/>
<path d="M63.1913 13.2044H59.3017V14.1789H62.2164C62.1372 14.9742 61.8246 15.5986 61.2976 16.0521C60.7705 16.5057 60.0975 16.7335 59.3017 16.7335C58.4287 16.7335 57.6891 16.4255 57.083 15.8138C56.4891 15.1895 56.1871 14.4174 56.1871 13.4872C56.1871 12.557 56.4891 11.7849 57.083 11.1606C57.6891 10.5489 58.4287 10.243 59.3017 10.243C59.7497 10.243 60.1768 10.321 60.5683 10.4919C60.9601 10.6627 61.2746 10.9011 61.5205 11.207L62.2601 10.4582C61.9246 10.0721 61.4997 9.77683 60.9724 9.56164C60.4454 9.34645 59.8954 9.24317 59.3016 9.24317C58.137 9.24317 57.1496 9.65236 56.3433 10.4687C55.537 11.2871 55.1328 12.2954 55.1328 13.4872C55.1328 14.6789 55.5369 15.6894 56.3433 16.5058C57.1495 17.322 58.137 17.7314 59.3016 17.7314C60.5245 17.7314 61.4996 17.3348 62.2496 16.5289C62.91 15.8582 63.2475 14.9512 63.2475 13.8163C63.2475 13.6244 63.2245 13.4197 63.1912 13.2045L63.1913 13.2044ZM64.6982 9.42441V17.5498H69.3836V16.552H65.7294V13.9745H69.0253V12.9999H65.7294V10.4243H69.3836V9.42438L64.6982 9.42441ZM75.9536 10.4244V9.42441H70.4389V10.4244H72.6807V17.5498H73.7119V10.4244H75.9536ZM80.9463 9.42441H79.9151V17.5498H80.9463V9.42441ZM87.7532 10.4244V9.42441H82.2386V10.4244H84.4801V17.5498H85.5114V10.4244H87.7532ZM98.1596 10.4813C97.3637 9.6523 96.3887 9.2431 95.2241 9.2431C94.0574 9.2431 93.0825 9.65229 92.2865 10.4687C91.4907 11.2745 91.0991 12.2848 91.0991 13.4871C91.0991 14.6894 91.4907 15.6999 92.2865 16.5057C93.0824 17.322 94.0574 17.7313 95.2241 17.7313C96.3782 17.7313 97.3636 17.322 98.1596 16.5057C98.9554 15.6999 99.347 14.6895 99.347 13.4871C99.347 12.2954 98.9554 11.287 98.1596 10.4813V10.4813ZM93.0262 11.1605C93.6199 10.5488 94.3491 10.2429 95.2241 10.2429C96.097 10.2429 96.8262 10.5488 97.4095 11.1605C98.0033 11.7617 98.2949 12.5462 98.2949 13.4871C98.2949 14.4301 98.0033 15.2125 97.4095 15.8138C96.8262 16.4255 96.097 16.7334 95.2241 16.7334C94.3491 16.7334 93.6199 16.4254 93.0262 15.8138C92.4448 15.1999 92.1532 14.43 92.1532 13.4871C92.1532 12.5463 92.4448 11.7743 93.0262 11.1605V11.1605ZM101.797 12.4894L101.753 10.9221H101.797L105.876 17.5497H106.953V9.42432H105.922V14.1788L105.966 15.7462H105.922L102.022 9.42432H100.766V17.5497H101.797V12.4894Z" fill="white" stroke="white" stroke-width="0.26666" stroke-miterlimit="10"/>
</svg>
