<svg width="180" height="54" viewBox="0 0 180 54" fill="none" xmlns="http://www.w3.org/2000/svg">
<g clip-path="url(#clip0_57_158)">
<path d="M174.375 54H5.625C2.53125 54 0 51.57 0 48.6V5.4C0 2.43 2.53125 0 5.625 0H174.375C177.469 0 180 2.43 180 5.4V48.6C180 51.57 177.469 54 174.375 54Z" fill="black"/>
<path d="M25.5937 39.555L12.9375 37.8V27.54H25.5937V39.555ZM25.5937 26.595H12.9375V16.875L25.5937 15.12V26.595ZM42.8906 41.85L26.5781 39.555V27.54H42.8906V41.85ZM42.8906 26.595H26.5781V15.12L42.8906 12.825V26.595Z" fill="white"/>
<path d="M64.6865 20.52C64.124 20.79 62.8584 21.06 61.4522 21.06C59.9053 21.06 58.499 20.655 57.5146 19.71C56.6709 18.9 56.1084 17.55 56.1084 15.93C56.1084 12.96 58.2178 10.665 61.7334 10.665C62.999 10.665 63.8428 10.935 64.4053 11.07L64.124 12.15C63.5615 11.88 62.8584 11.745 61.874 11.745C59.3428 11.745 57.6553 13.23 57.6553 15.795C57.6553 18.36 59.2021 19.845 61.7334 19.845C62.5771 19.845 63.2803 19.71 63.5615 19.575V16.605H61.4522V15.525H64.8271V20.52H64.6865Z" fill="white"/>
<path d="M67.499 17.55C67.499 19.305 68.7646 20.115 70.0303 20.115C71.0146 20.115 71.5771 19.98 72.1396 19.71L72.4209 20.655C71.999 20.925 71.1553 21.06 69.8896 21.06C67.6396 21.06 66.2334 19.575 66.2334 17.415C66.2334 15.255 67.499 13.5 69.749 13.5C72.1396 13.5 72.8428 15.525 72.8428 16.875C72.8428 17.145 72.8428 17.415 72.8428 17.55H67.499ZM71.5771 16.605C71.5771 15.795 71.1553 14.445 69.749 14.445C68.3428 14.445 67.7803 15.66 67.6396 16.605H71.5771Z" fill="white"/>
<path d="M76.2178 11.61V13.635H78.1865V14.58H76.2178V18.495C76.2178 19.44 76.499 19.845 77.2021 19.845C77.624 19.845 77.7647 19.845 78.0459 19.71V20.655C77.7647 20.79 77.3428 20.79 76.7803 20.79C76.0771 20.79 75.6553 20.655 75.374 20.25C74.9521 19.845 74.8115 19.17 74.8115 18.36V14.445H73.6865V13.5H74.8115V11.745L76.2178 11.61Z" fill="white"/>
<path d="M84.5146 11.61C84.5146 12.015 84.2334 12.42 83.6709 12.42C83.249 12.42 82.8271 12.015 82.8271 11.61C82.8271 11.205 83.249 10.8 83.6709 10.8C84.0928 10.8 84.5146 11.205 84.5146 11.61ZM82.9678 20.925V13.635H84.374V20.925H82.9678Z" fill="white"/>
<path d="M88.1709 11.61V13.635H90.1397V14.58H88.1709V18.495C88.1709 19.44 88.4521 19.845 89.1553 19.845C89.5771 19.845 89.7178 19.845 89.999 19.71V20.655C89.7178 20.79 89.2959 20.79 88.7334 20.79C88.0303 20.79 87.6084 20.655 87.3271 20.25C86.9053 19.845 86.7647 19.17 86.7647 18.36V14.445H85.6396V13.5H86.7647V11.745L88.1709 11.61Z" fill="white"/>
<path d="M101.672 17.28C101.672 19.98 99.7031 21.195 97.875 21.195C95.9062 21.195 94.2188 19.71 94.2188 17.415C94.2188 14.985 95.9062 13.5 97.875 13.5C100.266 13.5 101.672 14.985 101.672 17.28ZM95.7656 17.28C95.7656 18.9 96.75 20.115 98.0156 20.115C99.2812 20.115 100.266 18.9 100.266 17.28C100.266 16.065 99.5625 14.445 98.0156 14.445C96.4687 14.445 95.7656 15.93 95.7656 17.28Z" fill="white"/>
<path d="M103.359 15.66C103.359 14.85 103.359 14.31 103.359 13.635H104.625L104.766 14.85C105.188 14.175 106.031 13.5 107.297 13.5C108.281 13.5 109.969 14.04 109.969 16.605V20.925H108.562V16.74C108.562 15.525 108.141 14.58 106.875 14.58C106.031 14.58 105.328 15.255 105.047 15.93C105.047 16.065 104.906 16.335 104.906 16.605V20.925H103.5V15.66H103.359Z" fill="white"/>
<path d="M59.7656 42.795L55.9688 28.08H58.0781L59.9062 35.505C60.3281 37.395 60.75 39.15 61.0312 40.635C61.3125 39.15 61.7344 37.395 62.2969 35.505L64.2656 28.08H66.375L68.2031 35.505C68.625 37.26 69.0469 39.015 69.3281 40.5C69.6094 38.88 70.0312 37.26 70.5937 35.37L72.5625 27.945H74.5313L70.1719 42.66H68.0625L66.0938 34.965C65.6719 33.075 65.25 31.59 65.1094 30.105C64.8281 31.59 64.5469 32.94 63.9844 34.965L61.875 42.66H59.7656V42.795Z" fill="white"/>
<path d="M78.0469 29.16C78.0469 29.835 77.625 30.375 76.7813 30.375C76.0781 30.375 75.5156 29.835 75.5156 29.16C75.5156 28.485 76.0781 27.945 76.7813 27.945C77.625 28.08 78.0469 28.485 78.0469 29.16ZM75.7969 42.795V32.265H77.7656V42.795H75.7969Z" fill="white"/>
<path d="M80.2969 35.1C80.2969 34.02 80.2969 33.075 80.1562 32.265H81.9844L82.125 34.02C82.6875 33.075 83.9531 31.995 85.7812 31.995C87.3281 31.995 89.5781 32.805 89.5781 36.45V42.795H87.6094V36.72C87.6094 34.965 86.9062 33.615 85.0781 33.615C83.8125 33.615 82.6875 34.56 82.4062 35.64C82.2656 35.91 82.2656 36.18 82.2656 36.585V42.93H80.2969V35.1Z" fill="white"/>
<path d="M102.093 27.27V40.095C102.093 41.04 102.093 42.12 102.233 42.795H100.405L100.265 40.905C99.7021 42.12 98.2959 42.93 96.6084 42.93C93.9365 42.93 91.9678 40.77 91.9678 37.53C91.9678 34.02 94.2178 31.86 96.8896 31.86C98.5771 31.86 99.7022 32.67 100.124 33.48V27.135H102.093V27.27ZM100.124 36.45C100.124 36.18 100.124 35.91 99.9834 35.64C99.7022 34.425 98.5772 33.48 97.1709 33.48C95.0615 33.48 93.9365 35.235 93.9365 37.53C93.9365 39.69 95.0615 41.445 97.1709 41.445C98.4365 41.445 99.7022 40.635 100.124 39.15C100.124 38.88 100.265 38.61 100.265 38.34V36.45H100.124Z" fill="white"/>
<path d="M114.608 37.395C114.608 41.31 111.796 43.065 109.124 43.065C106.171 43.065 103.921 40.905 103.921 37.665C103.921 34.155 106.312 31.995 109.405 31.995C112.499 31.995 114.608 34.155 114.608 37.395ZM106.03 37.53C106.03 39.825 107.437 41.58 109.405 41.58C111.233 41.58 112.78 39.825 112.78 37.53C112.78 35.775 111.796 33.48 109.546 33.48C107.015 33.345 106.03 35.505 106.03 37.53Z" fill="white"/>
<path d="M117.14 32.13L118.546 37.53C118.827 38.745 119.108 39.825 119.39 40.905C119.671 39.825 119.952 38.745 120.374 37.53L122.202 32.13H123.89L125.577 37.395C125.999 38.61 126.28 39.825 126.562 40.905C126.702 39.825 126.983 38.745 127.405 37.53L128.952 32.265H130.921L127.405 42.795H125.577L123.89 37.8C123.468 36.585 123.187 35.64 122.905 34.29C122.624 35.505 122.343 36.585 121.921 37.8L120.093 42.795H118.405L115.171 32.265H117.14V32.13Z" fill="white"/>
<path d="M132.469 40.77C133.031 41.175 134.156 41.58 135.141 41.58C136.547 41.58 137.25 40.905 137.25 39.96C137.25 39.015 136.688 38.475 135.281 38.07C133.313 37.395 132.328 36.315 132.328 35.1C132.328 33.345 133.734 31.995 136.125 31.995C137.25 31.995 138.234 32.265 138.797 32.67L138.234 34.02C137.812 33.75 136.969 33.345 135.984 33.345C134.859 33.345 134.156 34.02 134.156 34.83C134.156 35.64 134.859 36.045 136.266 36.585C138.094 37.26 139.078 38.205 139.078 39.825C139.078 41.715 137.531 42.93 135 42.93C133.734 42.93 132.75 42.66 131.906 42.255L132.469 40.77Z" fill="white"/>
<path d="M148.358 30.375L145.827 31.725L145.405 30.24L148.64 28.62H150.327V42.795H148.358V30.375Z" fill="white"/>
<path d="M164.109 35.505C164.109 40.365 162.281 42.93 159.047 42.93C156.234 42.93 154.266 40.365 154.125 35.64C154.125 30.915 156.234 28.215 159.187 28.215C162.422 28.35 164.109 31.05 164.109 35.505ZM156.094 35.775C156.094 39.42 157.219 41.58 159.047 41.58C161.016 41.58 162 39.285 162 35.64C162 32.13 161.016 29.835 159.047 29.835C157.359 29.835 156.094 31.86 156.094 35.775Z" fill="white"/>
</g>
<defs>
<clipPath id="clip0_57_158">
<rect width="180" height="54" fill="white"/>
</clipPath>
</defs>
</svg>
