<svg width="128" height="40" viewBox="0 0 128 40" fill="none" xmlns="http://www.w3.org/2000/svg">
<path d="M124 40H4C1.8 40 0 38.2 0 36V4C0 1.8 1.8 0 4 0H124C126.2 0 128 1.8 128 4V36C128 38.2 126.2 40 124 40Z" fill="black"/>
<path d="M18.2002 29.3L9.2002 28V20.4H18.2002V29.3ZM18.2002 19.7H9.2002V12.5L18.2002 11.2V19.7ZM30.5002 31L18.9002 29.3V20.4H30.5002V31ZM30.5002 19.7H18.9002V11.2L30.5002 9.5V19.7Z" fill="white"/>
<path d="M45.9994 15.2C45.5994 15.4 44.6994 15.6 43.6994 15.6C42.5994 15.6 41.5994 15.3 40.8994 14.6C40.2994 14 39.8994 13 39.8994 11.8C39.8994 9.59999 41.3994 7.89999 43.8994 7.89999C44.7994 7.89999 45.3994 8.1 45.7994 8.2L45.5994 8.99999C45.1994 8.79999 44.6994 8.7 43.9994 8.7C42.1994 8.7 40.9994 9.8 40.9994 11.7C40.9994 13.6 42.0994 14.7 43.8994 14.7C44.4994 14.7 44.9994 14.6 45.1994 14.5V12.3H43.6994V11.5H46.0994V15.2H45.9994Z" fill="white"/>
<path d="M47.9996 13C47.9996 14.3 48.8996 14.9 49.7996 14.9C50.4996 14.9 50.8996 14.8 51.2996 14.6L51.4996 15.3C51.1996 15.5 50.5996 15.6 49.6996 15.6C48.0996 15.6 47.0996 14.5 47.0996 12.9C47.0996 11.3 47.9996 10 49.5996 10C51.2996 10 51.7996 11.5 51.7996 12.5C51.7996 12.7 51.7996 12.9 51.7996 13H47.9996V13ZM50.8996 12.3C50.8996 11.7 50.5996 10.7 49.5996 10.7C48.5996 10.7 48.1996 11.6 48.0996 12.3H50.8996Z" fill="white"/>
<path d="M54.1994 8.60001V10.1H55.5994V10.8H54.1994V13.7C54.1994 14.4 54.3994 14.7 54.8994 14.7C55.1994 14.7 55.2994 14.7 55.4994 14.6V15.3C55.2994 15.4 54.9994 15.4 54.5994 15.4C54.0994 15.4 53.7994 15.3 53.5994 15C53.2994 14.7 53.1994 14.2 53.1994 13.6V10.7H52.3994V10H53.1994V8.70001L54.1994 8.60001Z" fill="white"/>
<path d="M60.0994 8.6C60.0994 8.9 59.8994 9.2 59.4994 9.2C59.1994 9.2 58.8994 8.9 58.8994 8.6C58.8994 8.3 59.1994 8 59.4994 8C59.7994 8 60.0994 8.3 60.0994 8.6ZM58.9994 15.5V10.1H59.9994V15.5H58.9994Z" fill="white"/>
<path d="M62.6994 8.60001V10.1H64.0994V10.8H62.6994V13.7C62.6994 14.4 62.8994 14.7 63.3994 14.7C63.6994 14.7 63.7994 14.7 63.9994 14.6V15.3C63.7994 15.4 63.4994 15.4 63.0994 15.4C62.5994 15.4 62.2994 15.3 62.0994 15C61.7994 14.7 61.6994 14.2 61.6994 13.6V10.7H60.8994V10H61.6994V8.70001L62.6994 8.60001Z" fill="white"/>
<path d="M72.3 12.8C72.3 14.8 70.9 15.7 69.6 15.7C68.2 15.7 67 14.6 67 12.9C67 11.1 68.2 10 69.6 10C71.3 10 72.3 11.1 72.3 12.8ZM68.1 12.8C68.1 14 68.8 14.9 69.7 14.9C70.6 14.9 71.3 14 71.3 12.8C71.3 11.9 70.8 10.7 69.7 10.7C68.6 10.7 68.1 11.8 68.1 12.8Z" fill="white"/>
<path d="M73.5 11.6C73.5 11 73.5 10.6 73.5 10.1H74.4L74.5 11C74.8 10.5 75.4 10 76.3 10C77 10 78.2 10.4 78.2 12.3V15.5H77.2V12.4C77.2 11.5 76.9 10.8 76 10.8C75.4 10.8 74.9 11.3 74.7 11.8C74.7 11.9 74.6 12.1 74.6 12.3V15.5H73.6V11.6H73.5Z" fill="white"/>
<path d="M42.4998 31.7L39.7998 20.8H41.2998L42.5998 26.3C42.8998 27.7 43.1998 29 43.3998 30.1C43.5998 29 43.8998 27.7 44.2998 26.3L45.6998 20.8H47.1998L48.4998 26.3C48.7998 27.6 49.0998 28.9 49.2998 30C49.4998 28.8 49.7998 27.6 50.1998 26.2L51.5998 20.7H52.9998L49.8998 31.6H48.3998L46.9998 25.9C46.6998 24.5 46.3998 23.4 46.2998 22.3C46.0998 23.4 45.8998 24.4 45.4998 25.9L43.9998 31.6H42.4998V31.7Z" fill="white"/>
<path d="M55.5002 21.6C55.5002 22.1 55.2002 22.5 54.6002 22.5C54.1002 22.5 53.7002 22.1 53.7002 21.6C53.7002 21.1 54.1002 20.7 54.6002 20.7C55.2002 20.8 55.5002 21.1 55.5002 21.6ZM53.9002 31.7V23.9H55.3002V31.7H53.9002Z" fill="white"/>
<path d="M57.1 26C57.1 25.2 57.1 24.5 57 23.9H58.3L58.4 25.2C58.8 24.5 59.7 23.7 61 23.7C62.1 23.7 63.7 24.3 63.7 27V31.7H62.3V27.2C62.3 25.9 61.8 24.9 60.5 24.9C59.6 24.9 58.8 25.6 58.6 26.4C58.5 26.6 58.5 26.8 58.5 27.1V31.8H57.1V26V26Z" fill="white"/>
<path d="M72.5994 20.2V29.7C72.5994 30.4 72.5994 31.2 72.6994 31.7H71.3994L71.2994 30.3C70.8994 31.2 69.8994 31.8 68.6994 31.8C66.7994 31.8 65.3994 30.2 65.3994 27.8C65.3994 25.2 66.9994 23.6 68.8994 23.6C70.0994 23.6 70.8994 24.2 71.1994 24.8V20.1H72.5994V20.2ZM71.1994 27C71.1994 26.8 71.1994 26.6 71.0994 26.4C70.8994 25.5 70.0994 24.8 69.0994 24.8C67.5994 24.8 66.7994 26.1 66.7994 27.8C66.7994 29.4 67.5994 30.7 69.0994 30.7C69.9994 30.7 70.8994 30.1 71.1994 29C71.1994 28.8 71.2994 28.6 71.2994 28.4V27H71.1994Z" fill="white"/>
<path d="M81.4994 27.7C81.4994 30.6 79.4994 31.9 77.5994 31.9C75.4994 31.9 73.8994 30.3 73.8994 27.9C73.8994 25.3 75.5994 23.7 77.7994 23.7C79.9994 23.7 81.4994 25.3 81.4994 27.7ZM75.3994 27.8C75.3994 29.5 76.3994 30.8 77.7994 30.8C79.0994 30.8 80.1994 29.5 80.1994 27.8C80.1994 26.5 79.4994 24.8 77.8994 24.8C76.0994 24.7 75.3994 26.3 75.3994 27.8Z" fill="white"/>
<path d="M83.2994 23.8L84.2994 27.8C84.4994 28.7 84.6994 29.5 84.8994 30.3C85.0994 29.5 85.2994 28.7 85.5994 27.8L86.8994 23.8H88.0994L89.2994 27.7C89.5994 28.6 89.7994 29.5 89.9994 30.3C90.0994 29.5 90.2994 28.7 90.5994 27.8L91.6994 23.9H93.0994L90.5994 31.7H89.2994L88.0994 28C87.7994 27.1 87.5994 26.4 87.3994 25.4C87.1994 26.3 86.9994 27.1 86.6994 28L85.3994 31.7H84.1994L81.8994 23.9H83.2994V23.8Z" fill="white"/>
<path d="M94.1998 30.2C94.5998 30.5 95.3998 30.8 96.0998 30.8C97.0998 30.8 97.5998 30.3 97.5998 29.6C97.5998 28.9 97.1998 28.5 96.1998 28.2C94.7998 27.7 94.0998 26.9 94.0998 26C94.0998 24.7 95.0998 23.7 96.7998 23.7C97.5998 23.7 98.2998 23.9 98.6998 24.2L98.2998 25.2C97.9998 25 97.3998 24.7 96.6998 24.7C95.8998 24.7 95.3998 25.2 95.3998 25.8C95.3998 26.4 95.8998 26.7 96.8998 27.1C98.1998 27.6 98.8998 28.3 98.8998 29.5C98.8998 30.9 97.7998 31.8 95.9998 31.8C95.0998 31.8 94.3998 31.6 93.7998 31.3L94.1998 30.2Z" fill="white"/>
<path d="M105.499 22.5L103.699 23.5L103.399 22.4L105.699 21.2H106.899V31.7H105.499V22.5Z" fill="white"/>
<path d="M116.7 26.3C116.7 29.9 115.4 31.8 113.1 31.8C111.1 31.8 109.7 29.9 109.6 26.4C109.6 22.9 111.1 20.9 113.2 20.9C115.5 21 116.7 23 116.7 26.3ZM111 26.5C111 29.2 111.8 30.8 113.1 30.8C114.5 30.8 115.2 29.1 115.2 26.4C115.2 23.8 114.5 22.1 113.1 22.1C111.9 22.1 111 23.6 111 26.5Z" fill="white"/>
</svg>
